<svg width="170" height="48" viewBox="0 0 170 48" fill="none" xmlns="http://www.w3.org/2000/svg">
<path fill-rule="evenodd" clip-rule="evenodd" d="M10.8417 5.60229L9.6057 11.3916H12.9069C14.7075 11.3916 16.1173 10.2335 16.4921 8.4781C16.8586 6.7601 15.9431 5.60229 14.1426 5.60229H10.8417ZM23.0566 8.4781C21.9641 13.595 17.1125 16.9939 11.6732 16.9939H8.40987L6.77521 24.6505H0.323364L5.58564 0H15.3011C20.7401 0 24.1728 3.24928 23.0566 8.4781Z" fill="#9930E2"/>
<path fill-rule="evenodd" clip-rule="evenodd" d="M29.2502 15.3131C28.7559 17.6287 29.884 19.1974 32.0597 19.1974C34.0853 19.1974 35.9955 17.6287 36.4898 15.3131C36.9762 13.0349 35.7436 11.4288 33.7179 11.4288C31.5426 11.4288 29.7366 13.0349 29.2502 15.3131ZM43.0919 15.3131C41.9038 20.8783 36.3891 25.0986 30.7622 25.0986C25.0981 25.0986 21.4603 20.8783 22.6484 15.3131C23.8363 9.74822 29.2761 5.52759 34.9402 5.52759C40.5671 5.52759 44.2798 9.74822 43.0919 15.3131Z" fill="#9930E2"/>
<path fill-rule="evenodd" clip-rule="evenodd" d="M76.7058 13.371H83.2328C83.5245 11.653 82.3679 10.5697 80.7173 10.5697C79.1419 10.5697 77.6136 11.5782 76.7058 13.371ZM88.0414 17.5543H76.0379C76.4397 19.0107 77.7591 19.6831 79.7847 19.6831C81.5853 19.6831 83.2723 19.1603 85.0097 18.2264L86.4025 22.5963C83.7931 24.277 81.1419 25.0987 78.4036 25.0987C72.2142 25.0987 68.7639 20.8783 69.952 15.3132C71.1399 9.74828 76.4298 5.52765 82.0563 5.52765C87.608 5.52765 90.1445 9.63607 89.132 14.3795C88.8926 15.4999 88.4418 16.7325 88.0414 17.5543Z" fill="#9930E2"/>
<path fill-rule="evenodd" clip-rule="evenodd" d="M105.893 5.97584L104.681 11.6529H103.143C100.292 11.6529 98.416 12.8855 97.7221 16.1348L95.9042 24.6506H89.4524L93.4391 5.97584H99.3281L98.9054 7.95539C100.379 6.49864 102.205 5.6769 104.118 5.6769C104.831 5.6769 105.407 5.78911 105.893 5.97584Z" fill="#9930E2"/>
<path fill-rule="evenodd" clip-rule="evenodd" d="M119.542 15.3131C120.1 12.6986 118.624 11.354 116.711 11.354C114.911 11.354 112.817 12.5492 112.235 15.2757C111.661 17.9651 113.183 19.2722 115.021 19.2722C116.896 19.2722 118.984 17.9277 119.542 15.3131ZM126.152 15.2757C124.932 20.9902 120.304 25.0986 115.052 25.0986C113.027 25.0986 111.549 24.4636 110.618 23.3806L108.911 31.3733H102.459L107.881 5.97586H113.77L113.356 7.918C114.853 6.34933 116.83 5.52759 119.23 5.52759C124.482 5.52759 127.372 9.5612 126.152 15.2757Z" fill="#073382"/>
<path fill-rule="evenodd" clip-rule="evenodd" d="M138.439 17.8156L138.471 17.6662H135.433C134.345 17.6662 133.595 18.189 133.404 19.0856C133.213 19.9818 133.768 20.542 135.006 20.542C136.619 20.542 138.072 19.5336 138.439 17.8156ZM145.744 13.8191L143.432 24.6505H137.543L137.87 23.1192C136.294 24.3518 134.296 25.0987 132.045 25.0987C127.807 25.0987 126.167 22.4094 126.829 19.3094C127.579 15.7986 130.868 13.7445 135.37 13.7445H139.308L139.372 13.4456C139.659 12.1011 139.057 11.0552 137.031 11.0552C135.231 11.0552 133.772 11.9143 131.856 13.3337L129.724 9.26265C132.689 6.79743 135.511 5.52769 138.999 5.52769C144.101 5.52769 146.924 8.2913 145.744 13.8191Z" fill="#073382"/>
<path fill-rule="evenodd" clip-rule="evenodd" d="M170 5.97583L156.983 25.6591C154.214 29.842 151.391 31.8216 147.49 31.8216C146.289 31.8216 145.017 31.6348 143.985 31.3733L145.133 25.9951C146.025 26.0323 146.692 26.0697 147.292 26.0697C148.793 26.0697 150.124 25.8084 151.439 23.8663L151.874 23.2313L148.694 5.97583H155.558L156.919 16.4709L163.173 5.97583H170Z" fill="#073382"/>
<path fill-rule="evenodd" clip-rule="evenodd" d="M51.938 5.70563H43.3333L49.4493 20.6619L53.8208 12.2124L51.938 5.70563Z" fill="#9930E2"/>
<path fill-rule="evenodd" clip-rule="evenodd" d="M68.2035 0.669281L59.79 13.1955L59.0119 6.16673L45.7645 32.155L55.7961 21.367L57.2398 26.3396L77.0165 0.669281H68.2035Z" fill="#9930E2"/>
<path fill-rule="evenodd" clip-rule="evenodd" d="M145.183 37.5852L142.338 42.9773C142.276 43.094 142.101 43.094 142.039 42.9775L139.192 37.5849C139.164 37.5314 139.108 37.4974 139.046 37.4974H137.67C137.577 37.4974 137.517 37.5966 137.562 37.6787L142.044 46.0316C142.106 46.1469 142.272 46.1469 142.334 46.0316L146.816 37.679C146.86 37.5968 146.801 37.4977 146.707 37.4977H145.329C145.268 37.4977 145.212 37.5314 145.183 37.5852Z" fill="#073382"/>
<path fill-rule="evenodd" clip-rule="evenodd" d="M146.798 44.7806L149.643 39.3886C149.705 39.2719 149.88 39.2719 149.942 39.3883L152.789 44.7809C152.818 44.8348 152.874 44.8685 152.935 44.8685H154.311C154.404 44.8685 154.464 44.7693 154.42 44.6871L149.938 36.3343C149.876 36.2189 149.709 36.2189 149.647 36.3343L145.165 44.6868C145.121 44.769 145.181 44.8682 145.274 44.8682H146.653C146.714 44.8682 146.77 44.8345 146.798 44.7806Z" fill="#073382"/>
<path fill-rule="evenodd" clip-rule="evenodd" d="M125.518 44.8681L122.953 44.8684C122.862 44.8684 122.788 44.7948 122.788 44.7041L122.788 42.4143C122.788 42.3239 122.862 42.2502 122.953 42.2502H125.518C126.74 42.2502 127.286 42.5953 127.286 43.5593C127.286 44.5233 126.752 44.8681 125.518 44.8681ZM122.955 38.7439H125.484C126.416 38.7439 126.891 39.1412 126.891 39.8728C126.891 40.6078 126.418 41.0017 125.484 41.0017H122.955C122.864 41.0017 122.79 40.9283 122.79 40.8377V38.9083C122.79 38.8176 122.864 38.7439 122.955 38.7439ZM127.358 41.4755C127.951 41.1797 128.322 40.5396 128.322 39.7513C128.322 38.4087 127.271 37.4977 125.787 37.4977H121.523C121.431 37.4977 121.358 37.5711 121.358 37.6615V45.9537C121.358 46.0444 121.431 46.1183 121.523 46.1183H125.6C127.641 46.1183 128.717 45.2436 128.717 43.5318C128.717 41.8609 127.358 41.4755 127.358 41.4755Z" fill="#073382"/>
<path fill-rule="evenodd" clip-rule="evenodd" d="M134.266 44.8681L131.701 44.8684C131.61 44.8684 131.536 44.7948 131.536 44.7041V42.4143C131.536 42.3239 131.61 42.2502 131.701 42.2502H134.266C135.488 42.2502 136.034 42.5953 136.034 43.5593C136.034 44.5233 135.5 44.8681 134.266 44.8681ZM131.703 38.7439H134.232C135.164 38.7439 135.638 39.1412 135.638 39.8728C135.638 40.6078 135.166 41.0017 134.232 41.0017H131.703C131.612 41.0017 131.538 40.9283 131.538 40.8377V38.9083C131.538 38.8176 131.612 38.7439 131.703 38.7439ZM136.106 41.4755C136.699 41.1797 137.071 40.5396 137.071 39.7513C137.071 38.4087 136.019 37.4977 134.535 37.4977H130.271C130.18 37.4977 130.106 37.5711 130.106 37.6615V45.9537C130.106 46.0444 130.18 46.1183 130.271 46.1183H134.348C136.389 46.1183 137.465 45.2436 137.465 43.5318C137.465 41.8609 136.106 41.4755 136.106 41.4755Z" fill="#073382"/>
<path fill-rule="evenodd" clip-rule="evenodd" d="M16.5955 44.7951V41.2868H17.2319V44.6664C17.2319 45.3459 17.5179 45.6766 18.2003 45.6766C18.8184 45.6766 19.344 45.3459 19.8976 44.8319V41.2868H20.5339V46.1175H19.9619L19.8976 45.3553C19.4086 45.8237 18.7905 46.2184 18.0526 46.2184C17.0844 46.2184 16.5955 45.695 16.5955 44.7951Z" fill="#073382"/>
<path fill-rule="evenodd" clip-rule="evenodd" d="M22.0002 46.1175V41.2868H22.5719L22.6365 42.0493C23.1161 41.5716 23.7342 41.1859 24.4721 41.1859C25.4497 41.1859 25.9386 41.7093 25.9386 42.6092V46.1175H25.3023V42.7379C25.3023 42.0584 25.0069 41.7186 24.3244 41.7186C23.7063 41.7186 23.1807 42.04 22.6365 42.5633V46.1175H22.0002Z" fill="#073382"/>
<path fill-rule="evenodd" clip-rule="evenodd" d="M30.3563 44.9143V43.4085C28.2165 43.7755 27.6908 44.2807 27.6908 44.9052C27.6908 45.4105 28.0229 45.6765 28.5762 45.6765C29.2589 45.6765 29.8582 45.392 30.3563 44.9143ZM27.0636 44.9789C27.0636 44.0234 27.8843 43.3349 30.3563 42.9585V42.7103C30.3563 42.0492 29.9965 41.7186 29.3602 41.7186C28.6041 41.7186 28.0781 42.0215 27.5616 42.4808L27.2019 42.0861C27.783 41.5534 28.4194 41.1859 29.4063 41.1859C30.4855 41.1859 30.9835 41.7645 30.9835 42.7287V46.1174H30.4211L30.3563 45.4286C29.7936 45.9245 29.1664 46.2002 28.4379 46.2002C27.571 46.2002 27.0636 45.7318 27.0636 44.9789Z" fill="#073382"/>
<path fill-rule="evenodd" clip-rule="evenodd" d="M34.2119 43.7023C34.2119 41.9664 35.2911 41.1858 36.3793 41.1858C37.2649 41.1858 37.8364 41.6635 38.1685 42.334L37.6705 42.6369C37.3939 42.0492 37.025 41.7185 36.3608 41.7185C35.6414 41.7185 34.8482 42.2603 34.8482 43.7023C34.8482 44.942 35.494 45.6858 36.3517 45.6858C37.0063 45.6858 37.3845 45.3645 37.7075 44.74L38.1779 45.0429C37.7721 45.8145 37.1819 46.2185 36.3147 46.2185C35.1989 46.2185 34.2119 45.3095 34.2119 43.7023Z" fill="#073382"/>
<path fill-rule="evenodd" clip-rule="evenodd" d="M42.7898 43.7023C42.7898 42.6369 42.2548 41.7276 41.2309 41.7276C40.2442 41.7276 39.6631 42.5632 39.6631 43.7023C39.6631 44.7768 40.1887 45.6767 41.2309 45.6767C42.2087 45.6767 42.7898 44.8411 42.7898 43.7023ZM39.0265 43.7023C39.0265 42.086 40.0322 41.1858 41.2309 41.1858C42.4207 41.1858 43.4262 42.086 43.4262 43.7023C43.4262 45.3095 42.4207 46.2185 41.2309 46.2185C40.0413 46.2185 39.0265 45.3095 39.0265 43.7023Z" fill="#073382"/>
<path fill-rule="evenodd" clip-rule="evenodd" d="M44.625 46.1175V41.2868H45.1967L45.2613 42.0493C45.7408 41.5716 46.3128 41.1859 47.0414 41.1859C47.8624 41.1859 48.2495 41.5441 48.388 42.0584C48.8861 41.5806 49.4948 41.1859 50.2142 41.1859C51.2106 41.1859 51.6161 41.7461 51.6161 42.6186V46.1175H50.9798V42.7379C50.9798 42.0584 50.7493 41.7277 50.0665 41.7277C49.4763 41.7277 48.9874 42.0493 48.4433 42.5727V46.1175H47.8069V42.7379C47.8069 42.0584 47.5764 41.7277 46.8846 41.7277C46.3035 41.7277 45.8054 42.0493 45.2613 42.5727V46.1175H44.625Z" fill="#073382"/>
<path fill-rule="evenodd" clip-rule="evenodd" d="M56.6705 43.7023C56.6705 42.3708 56.0066 41.7276 55.1946 41.7276C54.5953 41.7276 54.1713 42.031 53.6824 42.5173V44.887C54.1804 45.392 54.6323 45.6677 55.2134 45.6677C56.0248 45.6677 56.6705 45.0891 56.6705 43.7023ZM53.046 48V41.2869H53.6175L53.6824 41.9664C54.0697 41.5442 54.5771 41.1858 55.3056 41.1858C56.4215 41.1858 57.3068 42.0033 57.3068 43.6929C57.3068 45.3829 56.4124 46.2001 55.2871 46.2001C54.6232 46.2001 54.1158 45.8972 53.6824 45.456V47.9085L53.046 48Z" fill="#073382"/>
<path fill-rule="evenodd" clip-rule="evenodd" d="M61.4206 44.9143V43.4085C59.2808 43.7755 58.7551 44.2807 58.7551 44.9052C58.7551 45.4105 59.0872 45.6765 59.6405 45.6765C60.3232 45.6765 60.9225 45.392 61.4206 44.9143ZM58.1279 44.9789C58.1279 44.0234 58.9486 43.3349 61.4206 42.9585V42.7103C61.4206 42.0492 61.0608 41.7186 60.4245 41.7186C59.6684 41.7186 59.1424 42.0215 58.6259 42.4808L58.2662 42.0861C58.8473 41.5534 59.4837 41.1859 60.4706 41.1859C61.5498 41.1859 62.0478 41.7645 62.0478 42.7287V46.1174H61.4854L61.4206 45.4286C60.8579 45.9245 60.2307 46.2002 59.5022 46.2002C58.6353 46.2002 58.1279 45.7318 58.1279 44.9789Z" fill="#073382"/>
<path fill-rule="evenodd" clip-rule="evenodd" d="M64.7965 40.2768C64.5289 40.2768 64.4182 40.4239 64.4273 40.8095L64.0215 40.7359C64.0215 40.0838 64.289 39.7625 64.7965 39.7625C65.3127 39.7625 65.7834 40.2768 66.1616 40.2768C66.4288 40.2768 66.5395 40.1297 66.5395 39.7441L66.9363 39.8175C66.9363 40.4698 66.6687 40.7908 66.1616 40.7908C65.6448 40.7908 65.1744 40.2768 64.7965 40.2768ZM63.4683 46.1174V41.2867H64.04L64.1046 42.0492C64.5842 41.5715 65.2023 41.1858 65.9402 41.1858C66.9178 41.1858 67.4067 41.7095 67.4067 42.6091V46.1174H66.7703V42.7381C66.7703 42.0583 66.4749 41.7185 65.7925 41.7185C65.1744 41.7185 64.6488 42.0402 64.1046 42.5632V46.1174H63.4683Z" fill="#073382"/>
<path fill-rule="evenodd" clip-rule="evenodd" d="M69.9153 39.3307H70.7546L69.4543 40.7637H69.0391L69.9153 39.3307ZM68.8823 46.1175H69.5186V41.2867H68.8823V46.1175Z" fill="#073382"/>
<path fill-rule="evenodd" clip-rule="evenodd" d="M74.0379 44.9143V43.4085C71.8981 43.7755 71.3724 44.2807 71.3724 44.9052C71.3724 45.4105 71.7045 45.6765 72.2578 45.6765C72.9405 45.6765 73.5398 45.392 74.0379 44.9143ZM70.7452 44.9789C70.7452 44.0234 71.566 43.3349 74.0379 42.9585V42.7103C74.0379 42.0492 73.6781 41.7186 73.0418 41.7186C72.2857 41.7186 71.7598 42.0215 71.2432 42.4808L70.8835 42.0861C71.4646 41.5534 72.101 41.1859 73.0879 41.1859C74.1671 41.1859 74.6651 41.7645 74.6651 42.7287V46.1174H74.1027L74.0379 45.4286C73.4752 45.9245 72.848 46.2002 72.1195 46.2002C71.2526 46.2002 70.7452 45.7318 70.7452 44.9789Z" fill="#073382"/>
<path fill-rule="evenodd" clip-rule="evenodd" d="M81.5275 44.8684V42.5083C81.0292 42.0033 80.5773 41.7185 79.9962 41.7185C79.1939 41.7185 78.5391 42.334 78.5391 43.7023C78.5391 45.0338 79.203 45.6584 80.015 45.6584C80.6143 45.6584 81.0386 45.3645 81.5275 44.8684ZM77.9028 43.7114C77.9028 42.0214 78.7972 41.1858 79.9225 41.1858C80.5864 41.1858 81.1584 41.5165 81.5275 41.9481V39.3675L82.1636 39.2757V46.1174H81.5921L81.5275 45.4195C81.1402 45.842 80.6325 46.2001 79.9043 46.2001C78.7881 46.2001 77.9028 45.4011 77.9028 43.7114Z" fill="#073382"/>
<path fill-rule="evenodd" clip-rule="evenodd" d="M86.8585 43.3257C86.7936 42.4073 86.3511 41.7185 85.4842 41.7185C84.7833 41.7185 84.1191 42.2421 84.0083 43.3257H86.8585ZM83.3629 43.6929C83.3629 41.9851 84.4694 41.1858 85.4933 41.1858C86.6186 41.1858 87.4763 42.0492 87.4763 43.7023V43.8216H83.9992C84.0084 45.0063 84.6911 45.6858 85.5949 45.6858C86.2404 45.6858 86.7017 45.4378 87.1536 44.9697L87.4672 45.3829C86.9322 45.9428 86.3972 46.2185 85.5855 46.2185C84.359 46.2185 83.3629 45.346 83.3629 43.6929Z" fill="#073382"/>
<path fill-rule="evenodd" clip-rule="evenodd" d="M88.7307 46.1175V39.3676L89.367 39.2755V46.1175H88.7307Z" fill="#073382"/>
<path fill-rule="evenodd" clip-rule="evenodd" d="M92.7798 42.692C92.7798 40.5615 93.979 39.1931 95.6299 39.1931C96.7367 39.1931 97.5483 39.7533 97.9726 40.7819L97.3915 41.0573C97.0688 40.2217 96.5338 39.7902 95.6299 39.7902C94.4401 39.7902 93.4349 40.7728 93.4349 42.6645C93.4349 44.5472 94.3294 45.6585 95.639 45.6585C96.7828 45.6585 97.5392 44.841 97.5298 43.4818H95.925L95.8234 42.9218H98.1664V46.1176H97.5762V45.1349H97.5574C97.2441 45.741 96.6262 46.2462 95.5838 46.2462C93.8037 46.2462 92.7798 44.7217 92.7798 42.692Z" fill="#073382"/>
<path fill-rule="evenodd" clip-rule="evenodd" d="M99.6418 46.1175V41.2868H100.214L100.278 42.2329H100.297C100.666 41.6452 101.256 41.1859 102.206 41.1859H102.27L102.326 41.7736C102.307 41.7645 102.114 41.7645 102.095 41.7645C101.293 41.7645 100.647 42.2052 100.278 42.9677V46.1175H99.6418Z" fill="#073382"/>
<path fill-rule="evenodd" clip-rule="evenodd" d="M103.23 44.7951V41.2868H103.866V44.6664C103.866 45.3459 104.152 45.6766 104.835 45.6766C105.453 45.6766 105.978 45.3459 106.532 44.8319V41.2868H107.168V46.1175H106.596L106.532 45.3553C106.043 45.8237 105.425 46.2184 104.687 46.2184C103.719 46.2184 103.23 45.695 103.23 44.7951Z" fill="#073382"/>
<path fill-rule="evenodd" clip-rule="evenodd" d="M112.259 43.7023C112.259 42.3708 111.595 41.7276 110.784 41.7276C110.184 41.7276 109.76 42.031 109.271 42.5173V44.887C109.769 45.392 110.221 45.6677 110.802 45.6677C111.614 45.6677 112.259 45.0891 112.259 43.7023ZM108.635 48V41.2869H109.206L109.271 41.9664C109.659 41.5442 110.166 41.1858 110.895 41.1858C112.01 41.1858 112.896 42.0033 112.896 43.6929C112.896 45.3829 112.001 46.2001 110.876 46.2001C110.212 46.2001 109.705 45.8972 109.271 45.456V47.9085L108.635 48Z" fill="#073382"/>
<path fill-rule="evenodd" clip-rule="evenodd" d="M117.59 43.7023C117.59 42.6369 117.055 41.7276 116.031 41.7276C115.044 41.7276 114.464 42.5632 114.464 43.7023C114.464 44.7768 114.989 45.6767 116.031 45.6767C117.009 45.6767 117.59 44.8411 117.59 43.7023ZM113.827 43.7023C113.827 42.086 114.832 41.1858 116.031 41.1858C117.221 41.1858 118.226 42.086 118.226 43.7023C118.226 45.3095 117.221 46.2185 116.031 46.2185C114.842 46.2185 113.827 45.3095 113.827 43.7023Z" fill="#073382"/>
</svg>
